<svg width="36" height="10" viewBox="0 0 36 10" fill="none" xmlns="http://www.w3.org/2000/svg">
<path d="M35.8413 4.60231L29.7163 0.164808C29.5047 -0.0549361 29.1619 -0.0549361 28.9504 0.164808C28.7388 0.384552 28.7388 0.74051 28.9504 0.960201L34.1507 4.43752H0.541683C0.242277 4.43752 0 4.68911 0 5.00003C0 5.31096 0.242277 5.56255 0.541683 5.56255H34.1507L28.9504 9.03981C28.7388 9.25956 28.7388 9.61551 28.9504 9.83521C29.0561 9.94505 29.1948 10 29.3334 10C29.4719 10 29.6105 9.94505 29.7163 9.83521L35.8413 5.3977C36.0529 5.17801 36.0529 4.82206 35.8413 4.60231Z" fill="#1D1D1D"/>
</svg>
