<svg width="22" height="15" viewBox="0 0 22 15" fill="none" xmlns="http://www.w3.org/2000/svg">
<path d="M0.129419 7.21999L6.77714 0.316575C6.95027 0.136784 7.23072 0.136784 7.40381 0.316575C7.57695 0.496366 7.57695 0.787604 7.40381 0.967351L1.5126 7.08515H20.8291C21.0741 7.08515 21.2723 7.29101 21.2723 7.5454C21.2723 7.79979 21.0741 8.00564 20.8291 8.00564H1.5126L7.40381 14.1234C7.57695 14.3032 7.57695 14.5944 7.40381 14.7742C7.31727 14.864 7.20384 14.909 7.09046 14.909C6.97707 14.909 6.86369 14.864 6.7771 14.7742L0.129377 7.87076C-0.0437126 7.69101 -0.0437126 7.39978 0.129419 7.21999Z" fill="#1D1D1D"/>
</svg>
