<svg width="22" height="15" viewBox="0 0 22 15" fill="none" xmlns="http://www.w3.org/2000/svg">
<path d="M21.8703 7.21999L15.2226 0.316575C15.0495 0.136784 14.769 0.136784 14.5959 0.316575C14.4228 0.496366 14.4228 0.787604 14.5959 0.967351L20.4871 7.08515H1.17064C0.925674 7.08515 0.727448 7.29101 0.727448 7.5454C0.727448 7.79979 0.925674 8.00564 1.17064 8.00564H20.4871L14.5959 14.1234C14.4228 14.3032 14.4228 14.5944 14.5959 14.7742C14.6825 14.864 14.7959 14.909 14.9093 14.909C15.0227 14.909 15.1361 14.864 15.2226 14.7742L21.8704 7.87076C22.0435 7.69101 22.0435 7.39978 21.8703 7.21999Z" fill="#1D1D1D"/>
</svg>
