<svg width="16" height="15" viewBox="0 0 16 15" fill="none" xmlns="http://www.w3.org/2000/svg">
<path d="M7.70988 14.3704C7.49282 14.3704 7.28355 14.2913 7.12047 14.1476C6.50453 13.606 5.91069 13.097 5.38676 12.648L5.38409 12.6456C3.84802 11.3292 2.52157 10.1923 1.59865 9.07242C0.566963 7.82044 0.0864258 6.63338 0.0864258 5.33659C0.0864258 4.07665 0.516013 2.91428 1.29597 2.06344C2.08523 1.20254 3.16822 0.728394 4.34577 0.728394C5.22588 0.728394 6.0319 1.00822 6.74136 1.56005C7.09941 1.83859 7.42396 2.17949 7.70988 2.57712C7.99593 2.17949 8.32035 1.83859 8.67852 1.56005C9.38798 1.00822 10.194 0.728394 11.0741 0.728394C12.2515 0.728394 13.3346 1.20254 14.1239 2.06344C14.9039 2.91428 15.3333 4.07665 15.3333 5.33659C15.3333 6.63338 14.8529 7.82044 13.8212 9.07231C12.8983 10.1923 11.572 11.3291 10.0361 12.6454C9.51129 13.0951 8.91652 13.6049 8.29918 14.1479C8.13621 14.2913 7.92683 14.3704 7.70988 14.3704ZM4.34577 1.62661C3.42064 1.62661 2.57077 1.99793 1.95251 2.67223C1.32505 3.35672 0.979451 4.3029 0.979451 5.33659C0.979451 6.42725 1.38252 7.40268 2.28624 8.49931C3.15972 9.55932 4.45896 10.6728 5.96327 11.9621L5.96606 11.9644C6.49196 12.4152 7.08813 12.9262 7.7086 13.4718C8.3328 12.9251 8.9299 12.4133 9.45685 11.9619C10.961 10.6726 12.2602 9.55932 13.1336 8.49931C14.0372 7.40268 14.4403 6.42725 14.4403 5.33659C14.4403 4.3029 14.0947 3.35672 13.4673 2.67223C12.8491 1.99793 11.9991 1.62661 11.0741 1.62661C10.3964 1.62661 9.77418 1.84327 9.22478 2.2705C8.73517 2.65141 8.3941 3.13292 8.19414 3.46984C8.09131 3.6431 7.91031 3.74652 7.70988 3.74652C7.50946 3.74652 7.32845 3.6431 7.22562 3.46984C7.02578 3.13292 6.68471 2.65141 6.19499 2.2705C5.64558 1.84327 5.02336 1.62661 4.34577 1.62661Z" fill="white"/>
</svg>
