<svg width="31" height="34" viewBox="0 0 31 34" fill="none" xmlns="http://www.w3.org/2000/svg">
<path d="M26.1914 7.92098C26.0047 7.7348 25.7017 7.7348 25.515 7.92098C25.3283 8.10617 25.3283 8.41105 25.515 8.59821C25.8396 8.9218 26.1554 9.27002 26.448 9.6276C26.5421 9.74433 26.6796 9.80245 26.8165 9.80245C26.9244 9.80245 27.0323 9.76649 27.1219 9.6936C27.3264 9.52515 27.3559 9.2252 27.1894 9.01834C26.8771 8.64007 26.5421 8.27018 26.1914 7.92098Z" fill="black"/>
<path d="M22.2696 30.6528C21.474 31.0808 20.6292 31.4339 19.7617 31.6989C19.506 31.7738 19.3646 32.0447 19.4454 32.2978C19.5094 32.5032 19.6986 32.6362 19.903 32.6362C19.9479 32.6362 19.9957 32.6293 20.0424 32.615C20.9706 32.3308 21.8716 31.9541 22.7223 31.4935C22.9538 31.3714 23.041 31.0803 22.9154 30.8473C22.7913 30.6149 22.5036 30.5292 22.2696 30.6528Z" fill="black"/>
<path d="M28.9944 14.3968C29.055 14.6046 29.2461 14.7381 29.4506 14.7381C29.4959 14.7381 29.5432 14.7312 29.5875 14.7169C29.8417 14.6416 29.9855 14.3722 29.9077 14.1205C29.6289 13.1935 29.257 12.2902 28.7998 11.4342C28.6747 11.1993 28.3816 11.1141 28.1515 11.2377C27.9175 11.3613 27.8303 11.6509 27.9559 11.8839C28.3826 12.6882 28.7308 13.5319 28.9944 14.3968Z" fill="black"/>
<path d="M30.4732 16.9688C30.4481 16.7058 30.2126 16.523 29.9496 16.5398C29.687 16.5644 29.4934 16.8003 29.5205 17.0629C29.5634 17.5066 29.5855 17.9607 29.5855 18.4193C29.5855 18.8695 29.5619 19.326 29.518 19.7821C29.4934 20.0437 29.687 20.2801 29.9496 20.3047C29.9654 20.3057 29.9791 20.3057 29.9959 20.3057C30.2397 20.3057 30.4486 20.1215 30.4723 19.8732C30.5186 19.3906 30.5432 18.9 30.5432 18.4198C30.5402 17.9302 30.5176 17.4436 30.4732 16.9688Z" fill="black"/>
<path d="M26.4431 27.2115C25.8692 27.9123 25.2229 28.5595 24.5238 29.1358C24.3194 29.3042 24.2898 29.6067 24.4583 29.8111C24.5529 29.9263 24.6889 29.9839 24.8258 29.9839C24.9352 29.9839 25.0426 29.9495 25.1327 29.8736C25.8781 29.2579 26.5687 28.5649 27.181 27.8178C27.3485 27.6119 27.318 27.3124 27.1145 27.1435C26.9106 26.9765 26.6096 27.0081 26.4431 27.2115Z" fill="black"/>
<path d="M29.5875 22.1241C29.3377 22.0502 29.0683 22.1916 28.9895 22.4428C28.7269 23.3082 28.3806 24.1519 27.9515 24.9532C27.8279 25.1872 27.9155 25.4763 28.1471 25.5994C28.219 25.6383 28.2978 25.6585 28.3737 25.6585C28.5427 25.6585 28.7087 25.5664 28.7944 25.4034C29.253 24.5474 29.6279 23.6455 29.9067 22.7186C29.9826 22.4684 29.8412 22.2 29.5875 22.1241Z" fill="black"/>
<path d="M17.0852 32.2338C16.6241 32.2796 16.1537 32.3033 15.6955 32.3033C8.0392 32.3033 1.8095 26.0747 1.8095 18.4203C1.8095 10.8028 7.97467 4.6023 15.5798 4.54024L12.793 7.32797C12.6043 7.51562 12.6043 7.81902 12.793 8.0052C12.8851 8.09927 13.0093 8.14656 13.13 8.14656C13.2521 8.14656 13.3753 8.09927 13.4694 8.0052L17.2242 4.25162L13.4689 0.498034C13.2832 0.311365 12.9787 0.311365 12.7925 0.498034C12.6038 0.684211 12.6038 0.988103 12.7925 1.17527L15.2167 3.59951C7.25298 3.85513 0.851837 10.395 0.851837 18.4193C0.851837 26.6012 7.51111 33.2593 15.6955 33.2593C16.1872 33.2593 16.6837 33.2356 17.1769 33.1883C17.4409 33.1622 17.6335 32.9258 17.6084 32.6653C17.5818 32.3998 17.3503 32.219 17.0852 32.2338Z" fill="black"/>
<path d="M16.9012 12.3951C16.9012 12.8382 16.542 13.1975 16.0988 13.1975C15.6556 13.1975 15.2963 12.8382 15.2963 12.3951C15.2963 11.9519 15.6556 11.5926 16.0988 11.5926C16.542 11.5926 16.9012 11.9519 16.9012 12.3951Z" fill="black"/>
<path d="M16.1605 24.4321C15.7516 24.4321 15.4197 24.1086 15.4197 23.7099V16.2469H14.4321C14.0232 16.2469 13.6914 15.9234 13.6914 15.5247C13.6914 15.126 14.0232 14.8025 14.4321 14.8025H16.1605C16.5694 14.8025 16.9012 15.126 16.9012 15.5247V23.7099C16.9012 24.1086 16.5694 24.4321 16.1605 24.4321Z" fill="black"/>
</svg>
