<svg width="21" height="23" viewBox="0 0 21 23" fill="none" xmlns="http://www.w3.org/2000/svg">
<path d="M10.4105 12.393C10.4361 12.393 10.4616 12.393 10.4923 12.393C10.5025 12.393 10.5128 12.393 10.523 12.393C10.5383 12.393 10.5588 12.393 10.5741 12.393C12.0721 12.3692 13.2838 11.8787 14.1784 10.9404C16.1468 8.87327 15.8196 5.32968 15.7838 4.99151C15.656 2.45289 14.3676 1.23835 13.3042 0.671568C12.5118 0.24767 11.5864 0.0190516 10.5537 0H10.5179C10.5128 0 10.5025 0 10.4974 0H10.4667C9.89926 0 8.78473 0.0857321 7.71621 0.652516C6.64257 1.2193 5.33376 2.43384 5.20595 4.99151C5.17016 5.32968 4.84296 8.87327 6.81129 10.9404C7.70087 11.8787 8.91254 12.3692 10.4105 12.393ZM6.571 5.11058C6.571 5.09629 6.57611 5.08201 6.57611 5.07248C6.74482 1.65749 9.3471 1.29074 10.4616 1.29074H10.4821C10.4923 1.29074 10.5076 1.29074 10.523 1.29074C11.9034 1.31932 14.25 1.84324 14.4085 5.07248C14.4085 5.08677 14.4085 5.10106 14.4136 5.11058C14.4187 5.14392 14.7766 8.38269 13.1508 10.0878C12.5066 10.7641 11.6477 11.0975 10.5179 11.1071C10.5076 11.1071 10.5025 11.1071 10.4923 11.1071C10.4821 11.1071 10.477 11.1071 10.4667 11.1071C9.34199 11.0975 8.47797 10.7641 7.83891 10.0878C6.21823 8.39221 6.56589 5.13916 6.571 5.11058Z" fill="#1D1D1D"/>
<path d="M20.9986 18.2705C20.9986 18.2657 20.9986 18.2609 20.9986 18.2562C20.9986 18.2181 20.9935 18.18 20.9935 18.1371C20.9628 17.194 20.8963 14.9888 18.6775 14.2839C18.6621 14.2791 18.6417 14.2744 18.6264 14.2696C16.3206 13.7219 14.4034 12.4835 14.3829 12.4692C14.0711 12.2644 13.6416 12.3359 13.4218 12.6264C13.202 12.917 13.2786 13.317 13.5905 13.5218C13.6774 13.579 15.7122 14.8983 18.2583 15.508C19.4495 15.9033 19.5824 17.0893 19.6182 18.1752C19.6182 18.2181 19.6182 18.2562 19.6233 18.2943C19.6284 18.7229 19.5977 19.385 19.5159 19.766C18.6877 20.2042 15.4412 21.7188 10.5025 21.7188C5.58428 21.7188 2.31737 20.1994 1.48403 19.7612C1.40223 19.3802 1.36644 18.7182 1.37666 18.2895C1.37666 18.2514 1.38178 18.2133 1.38178 18.1704C1.41756 17.0845 1.55049 15.8985 2.74171 15.5032C5.28775 14.8936 7.32254 13.5695 7.40945 13.5171C7.72132 13.3123 7.79801 12.9122 7.57817 12.6217C7.35833 12.3311 6.92887 12.2597 6.61701 12.4645C6.59656 12.4788 4.68959 13.7171 2.37361 14.2649C2.35316 14.2696 2.33782 14.2744 2.32248 14.2791C0.103642 14.9888 0.0371793 17.194 0.0065041 18.1323C0.0065041 18.1752 0.00650398 18.2133 0.00139145 18.2514C0.00139145 18.2562 0.00139145 18.2609 0.00139145 18.2657C-0.00372108 18.5134 -0.00883351 19.785 0.262131 20.4233C0.313256 20.5471 0.405282 20.6519 0.527983 20.7233C0.681359 20.8186 4.35727 23 10.5076 23C16.658 23 20.3339 20.8138 20.4873 20.7233C20.6049 20.6519 20.702 20.5471 20.7532 20.4233C21.0088 19.7898 21.0037 18.5181 20.9986 18.2705Z" fill="#1D1D1D"/>
</svg>
