<svg width="30" height="28" viewBox="0 0 30 28" fill="none" xmlns="http://www.w3.org/2000/svg">
<path d="M29.5546 9.78479C29.4134 9.65124 29.2161 9.58791 29.0199 9.6132H21.3561V6.35284C21.3561 3.13063 18.6431 0.518555 15.2964 0.518555C11.9496 0.518555 9.23661 3.13063 9.23661 6.35284V9.6132H1.57269C1.35879 9.6132 1.14497 9.6132 1.03798 9.78479C0.894296 9.91774 0.827638 10.1102 0.859773 10.2996L3.53322 24.3706C3.9067 26.3334 5.66705 27.7697 7.73941 27.8025H22.8532C24.9314 27.7533 26.6881 26.3056 27.0593 24.3363L29.7328 10.2996C29.7649 10.1102 29.6983 9.91774 29.5546 9.78479ZM10.6624 6.35284C10.6624 3.88882 12.737 1.89133 15.2963 1.89133C17.8555 1.89133 19.9302 3.88882 19.9302 6.35284V9.6132H10.6624V6.35284ZM25.6335 24.1646C25.3934 25.4653 24.2252 26.417 22.8532 26.4297H7.73941C6.36735 26.417 5.19915 25.4654 4.95905 24.1646L2.4282 10.986H28.1644L25.6335 24.1646Z" fill="#1D1D1D"/>
<path d="M20.6432 17.6782C21.0369 17.6782 21.3561 17.3709 21.3561 16.9918V14.9327C21.3561 14.5536 21.0369 14.2463 20.6432 14.2463C20.2494 14.2463 19.9303 14.5536 19.9303 14.9327V16.9918C19.9302 17.3709 20.2494 17.6782 20.6432 17.6782Z" fill="#1D1D1D"/>
<path d="M9.94945 17.6782C10.3432 17.6782 10.6624 17.3709 10.6624 16.9918V14.9327C10.6624 14.5536 10.3432 14.2463 9.94945 14.2463C9.55571 14.2463 9.23654 14.5536 9.23654 14.9327V16.9918C9.23654 17.3709 9.55571 17.6782 9.94945 17.6782Z" fill="#1D1D1D"/>
</svg>
