<svg width="22" height="22" viewBox="0 0 22 22" fill="none" xmlns="http://www.w3.org/2000/svg">
<path d="M21.7917 20.8031L16.1115 15.2138C17.599 13.5978 18.5129 11.4606 18.5129 9.10876C18.5122 4.07781 14.3683 0 9.25611 0C4.14393 0 0 4.07781 0 9.10876C0 14.1397 4.14393 18.2175 9.25611 18.2175C11.4649 18.2175 13.4908 17.4535 15.0821 16.1834L20.7843 21.7947C21.0621 22.0684 21.5132 22.0684 21.7911 21.7947C22.0695 21.5211 22.0695 21.0768 21.7917 20.8031ZM9.25611 16.8161C4.93064 16.8161 1.42418 13.3654 1.42418 9.10876C1.42418 4.85211 4.93064 1.40144 9.25611 1.40144C13.5816 1.40144 17.088 4.85211 17.088 9.10876C17.088 13.3654 13.5816 16.8161 9.25611 16.8161Z" fill="#1D1D1D"/>
</svg>
